<svg xmlns="http://www.w3.org/2000/svg" viewBox="0 0 1000.84 252"><defs><style>.cls-1{fill:#fafcff;}.cls-2{fill:#10ac84;}.cls-3{fill:#1dd1a1;}</style></defs><g id="Layer_2" data-name="Layer 2"><g id="Layer_1-2" data-name="Layer 1"><path class="cls-1" d="M423.25,87.75H405.93a9.34,9.34,0,0,1-9.34-9.34h0a9.35,9.35,0,0,1,9.34-9.35h67.66a9.35,9.35,0,0,1,9.34,9.35h0a9.34,9.34,0,0,1-9.34,9.34H456.27a5,5,0,0,0-5,5v63.89a11.47,11.47,0,0,1-11.46,11.47h0a11.48,11.48,0,0,1-11.47-11.47V92.79A5,5,0,0,0,423.25,87.75Zm95.14,75.44A49.27,49.27,0,0,1,499,144.86a50.05,50.05,0,0,1-7-26.26,50,50,0,0,1,7-26.25A49.27,49.27,0,0,1,518.39,74,61.27,61.27,0,0,1,574,74a50.53,50.53,0,0,1,0,89.17,61.35,61.35,0,0,1-55.56,0Zm43.67-16.91A29,29,0,0,0,573.17,135a35.45,35.45,0,0,0,0-32.83,29,29,0,0,0-11.11-11.26,33.2,33.2,0,0,0-31.71,0,28.91,28.91,0,0,0-11.11,11.26,35.37,35.37,0,0,0,0,32.83,28.91,28.91,0,0,0,11.11,11.26,33.2,33.2,0,0,0,31.71,0Zm150.15,11.14-.1-41a2.13,2.13,0,0,0-4-1.08l-22.57,37.91a9.15,9.15,0,0,1-7.85,4.46h0a9.14,9.14,0,0,1-7.81-4.39l-22.41-36.83a2.12,2.12,0,0,0-3.94,1.1v39.84a10.75,10.75,0,0,1-10.75,10.76h0a10.76,10.76,0,0,1-10.76-10.76V81.18a12.12,12.12,0,0,1,12.12-12.12h0a12.12,12.12,0,0,1,10.38,5.87l28.73,47.71a5.59,5.59,0,0,0,9.59,0L711.15,75a12,12,0,0,1,10.33-5.89h0a12,12,0,0,1,12,12l.22,76.31A10.76,10.76,0,0,1,723,168.15h0A10.75,10.75,0,0,1,712.21,157.42ZM773.1,69.06h0a11.47,11.47,0,0,1,11.46,11.47v76.15a11.47,11.47,0,0,1-11.46,11.47h0a11.48,11.48,0,0,1-11.47-11.47V80.53A11.48,11.48,0,0,1,773.1,69.06Zm59.37,94.2A49.11,49.11,0,0,1,813.22,145a50.29,50.29,0,0,1-7-26.4,50.28,50.28,0,0,1,7-26.39A49,49,0,0,1,832.47,74,57.18,57.18,0,0,1,860,67.36a57.94,57.94,0,0,1,23.29,4.53,49.31,49.31,0,0,1,8.88,5A9.74,9.74,0,0,1,893.1,92l-.44.42a9.86,9.86,0,0,1-12.57.54,31.15,31.15,0,0,0-19-6,33,33,0,0,0-16.42,4,28.69,28.69,0,0,0-11.26,11.26,35.45,35.45,0,0,0,0,32.83,28.69,28.69,0,0,0,11.26,11.26,33,33,0,0,0,16.42,4,30.84,30.84,0,0,0,19-6.13,9.85,9.85,0,0,1,12.6.51l.48.45a9.74,9.74,0,0,1-.91,15.05,46.73,46.73,0,0,1-9,5.12,58.29,58.29,0,0,1-23.36,4.53A56.88,56.88,0,0,1,832.47,163.26Zm168.37-4.46h0a9.35,9.35,0,0,1-9.34,9.35H925.14a10.93,10.93,0,0,1-10.93-10.93h0a10.91,10.91,0,0,1,2.52-7l45.19-54.49a4.89,4.89,0,0,0-3.76-8H924.69a9.34,9.34,0,0,1-9.34-9.34h0a9.35,9.35,0,0,1,9.34-9.35h64.69a9.35,9.35,0,0,1,9.34,9.35v2.15a9.34,9.34,0,0,1-2.15,6l-45.44,54.93a4.89,4.89,0,0,0,3.77,8h36.6A9.34,9.34,0,0,1,1000.84,158.8Z"/><path class="cls-2" d="M144,143.55v72.9A35.55,35.55,0,0,1,108.45,252h-.9A35.55,35.55,0,0,1,72,216.45V180H35.55A35.55,35.55,0,0,1,0,144.45v-.9A35.55,35.55,0,0,1,35.55,108h72.9A35.55,35.55,0,0,1,144,143.55ZM288.45,108h-72.9A35.55,35.55,0,0,0,180,143.55v72.9A35.55,35.55,0,0,0,215.55,252h.9A35.55,35.55,0,0,0,252,216.45V180h36.45A35.55,35.55,0,0,0,324,144.45v-.9A35.55,35.55,0,0,0,288.45,108Z"/><rect class="cls-3" width="324" height="72" rx="35.55"/></g></g></svg>